<svg t="1742216934774" class="icon" viewBox="0 0 1024 1024" version="1.1" xmlns="http://www.w3.org/2000/svg" p-id="1755" width="128" height="128"><path d="M512 64.5c247.147 0 447.5 200.353 447.5 447.5 0 70.075-16.14 137.901-46.725 199.294-6.772 13.595-23.282 19.125-36.877 12.353-13.594-6.773-19.124-23.283-12.352-36.878C890.356 632.953 904.5 573.516 904.5 512c0-216.772-175.728-392.5-392.5-392.5S119.5 295.228 119.5 512 295.228 904.5 512 904.5c90.318 0 175.888-30.563 244.944-85.79 11.861-9.486 29.166-7.56 38.652 4.3 9.486 11.862 7.56 29.167-4.3 38.653C712.573 924.62 614.916 959.5 512 959.5 264.853 959.5 64.5 759.147 64.5 512S264.853 64.5 512 64.5z" fill="#d81e06" p-id="1756"></path><path d="M481 241c16.569 0 30 13.431 30 30v224.618l178.209 149.535c12.692 10.65 14.348 29.573 3.698 42.265s-29.573 14.348-42.265 3.698L468.499 538.279C458.172 533.54 451 523.107 451 511V271c0-16.569 13.431-30 30-30z" fill="#d81e06" p-id="1757"></path></svg>